<svg width="10" height="10" viewBox="0 0 10 10" fill="none" xmlns="http://www.w3.org/2000/svg">
<path d="M5 1C5.13261 1 5.25979 1.0527 5.35355 1.1464C5.44732 1.2402 5.5 1.3674 5.5 1.5V4.5H8.5C8.6326 4.5 8.7598 4.5527 8.8536 4.6464C8.9473 4.7402 9 4.8674 9 5C9 5.1326 8.9473 5.2598 8.8536 5.3536C8.7598 5.4473 8.6326 5.5 8.5 5.5H5.5V8.5C5.5 8.6326 5.44732 8.7598 5.35355 8.8536C5.25979 8.9473 5.13261 9 5 9C4.86739 9 4.74021 8.9473 4.64645 8.8536C4.55268 8.7598 4.5 8.6326 4.5 8.5V5.5H1.5C1.36739 5.5 1.24021 5.4473 1.14645 5.3536C1.05268 5.2598 1 5.1326 1 5C1 4.8674 1.05268 4.7402 1.14645 4.6464C1.24021 4.5527 1.36739 4.5 1.5 4.5H4.5V1.5C4.5 1.3674 4.55268 1.2402 4.64645 1.1464C4.74021 1.0527 4.86739 1 5 1Z" stroke="#F0B664"/>
</svg>
